<?xml version="1.0" standalone="no"?><svg xmlns="http://www.w3.org/2000/svg" viewBox="0 0 1440 320"><path fill="#0099ff" fill-opacity="1" d="M0,96L24,117.3C48,139,96,181,144,202.7C192,224,240,224,288,208C336,192,384,160,432,154.7C480,149,528,171,576,197.3C624,224,672,256,720,229.3C768,203,816,117,864,85.3C912,53,960,75,1008,96C1056,117,1104,139,1152,149.3C1200,160,1248,160,1296,149.3C1344,139,1392,117,1416,106.7L1440,96L1440,320L1416,320C1392,320,1344,320,1296,320C1248,320,1200,320,1152,320C1104,320,1056,320,1008,320C960,320,912,320,864,320C816,320,768,320,720,320C672,320,624,320,576,320C528,320,480,320,432,320C384,320,336,320,288,320C240,320,192,320,144,320C96,320,48,320,24,320L0,320Z"></path></svg>